<svg width="138" height="86" viewBox="0 0 138 86" fill="none" xmlns="http://www.w3.org/2000/svg">
<path d="M128.714 85.9964H9.19387C6.75551 85.9964 4.41701 85.0903 2.69282 83.4774C0.968637 81.8645 0 79.677 0 77.3961L0 41.2172H6.62342L8.11742 37.8344H11.4617L12.9519 41.2029H25.9842V38.6407L27.1487 41.2208H33.9139L35.0784 38.5977V41.2136H67.46V35.6807H68.073C68.5097 35.6951 68.6361 35.7309 68.6361 36.4118V41.2208H85.3881V39.9343C87.1004 40.7478 89.1193 41.2244 91.2607 41.2244L91.6246 41.2208H91.6054H98.6541L100.163 37.8523H103.508L104.983 41.2208H118.566V38.0172L120.62 41.2208H131.484V20.0639H120.731V22.5616L119.225 20.0639H108.17V22.5616L106.787 20.0639H91.8583C89.5968 19.9617 87.3446 20.3969 85.3115 21.3289L85.3919 21.2966V20.0639H75.0948V21.2966C73.8478 20.3786 72.2741 19.9392 70.6932 20.0675H70.7162H33.0864L30.562 25.5323L27.9685 20.0675H16.1161V22.5652L14.8098 20.0675H4.69654L0.0114923 30.1013V8.60036C0.0114923 6.3194 0.980129 4.13187 2.70431 2.51899C4.4285 0.906107 6.767 0 9.20536 0H128.726C131.164 0 133.503 0.906107 135.227 2.51899C136.951 4.13187 137.92 6.3194 137.92 8.60036V46.1553H130.745C130.624 46.1505 130.495 46.1481 130.358 46.1481C128.695 46.1481 127.151 46.6139 125.864 47.4131L125.895 47.3951V46.1553H115.283C113.626 46.0687 111.985 46.5095 110.629 47.4059L110.652 47.3916V46.1517H91.705V47.3916C90.1529 46.5759 88.4019 46.1488 86.6216 46.1517H86.4722H86.4799H73.98V47.3916C72.3473 46.4122 70.4091 45.9766 68.479 46.1553L68.5135 46.1517H54.5273L51.3248 49.3911L48.3291 46.1517H27.436V67.3229H47.9384L51.2367 64.0332L54.3434 67.3229H66.9812V62.3669H68.7433C70.4379 62.4318 72.1285 62.167 73.708 61.5893L73.6237 61.618V67.3301H84.0435V61.8151H84.5453C85.1812 61.8151 85.2463 61.8366 85.2463 62.4386V67.3336H116.912L117.298 67.3408C119.114 67.3408 120.807 66.832 122.217 65.9612L122.183 65.9791V67.3336H132.227L132.706 67.3408C134.587 67.3408 136.376 66.9789 138 66.3231L137.912 66.3553V77.3996C137.912 79.6806 136.943 81.8681 135.219 83.481C133.495 85.0939 131.156 86 128.718 86L128.714 85.9964ZM80.8486 64.3558H76.9489V49.1797H85.8976C87.5138 49.0396 89.1412 49.2939 90.6209 49.9179L90.5596 49.8964C91.7587 50.5128 92.5593 51.6882 92.5593 53.0355L92.5516 53.2756V53.2649L92.5555 53.4011C92.5555 55.1426 91.433 56.6405 89.8241 57.2927L89.7935 57.3035C90.5635 57.5615 91.207 58.0023 91.6859 58.572L91.6935 58.5792C92.2333 59.4171 92.4597 60.3992 92.3371 61.3707L92.3409 61.3492V64.3522H88.4489V62.4529C88.6374 61.4188 88.4153 60.3559 87.8245 59.4643L87.8359 59.4822C87.4316 59.1951 86.9692 58.9877 86.4766 58.8725C85.9841 58.7573 85.4718 58.7368 84.9705 58.8121L84.9935 58.8085H80.8486V64.3522V64.3558ZM80.8486 52.3153V55.7232H85.5605C86.2258 55.7806 86.8955 55.6692 87.4988 55.4006L87.4758 55.4114C87.7221 55.2622 87.9247 55.0579 88.0651 54.817C88.2056 54.5761 88.2796 54.3062 88.2803 54.0318L88.2765 53.9493C88.2978 53.6751 88.2344 53.4045 88.0938 53.1631C87.9532 52.9216 87.7414 52.7231 87.4835 52.5912L87.4758 52.5876C86.8928 52.3495 86.2556 52.251 85.6217 52.3009H85.6371L80.8486 52.3153ZM46.2758 64.3522H30.9259V49.1797H46.5172L51.2865 54.1536L56.2167 49.1797H68.6016C72.9993 49.1797 75.1369 50.8174 75.1369 54.1787C75.1369 57.6009 72.9266 59.2636 68.3947 59.2636H63.5488V64.3486H56.0137L51.2405 59.3353L46.2758 64.3522ZM59.6874 50.8066L53.7343 56.791L59.6874 62.969V50.8066ZM34.7911 58.1707V61.188H44.3221L48.7275 56.7373L44.4907 52.3153H34.7873V55.0745H43.2993V58.1671L34.7911 58.1707ZM63.5488 52.3188V56.1818H68.5556C70.0879 56.1818 70.969 55.4508 70.969 54.1751C70.969 52.9567 70.1492 52.3153 68.5978 52.3153L63.5488 52.3188ZM132.648 64.3593H125.163V61.0984H132.618C133.176 61.1699 133.741 61.0335 134.192 60.7185L134.188 60.7221C134.333 60.5975 134.448 60.4462 134.526 60.2778C134.605 60.1094 134.645 59.9275 134.644 59.7438V59.6865C134.644 59.5052 134.602 59.3261 134.52 59.1615C134.439 58.997 134.321 58.8509 134.173 58.7333C133.779 58.461 133.288 58.3405 132.802 58.3964H132.809L132.093 58.3749C128.592 58.2889 124.627 58.1886 124.627 53.6985C124.627 51.5126 126.09 49.1797 130.185 49.1797H137.912V52.412H130.844C130.298 52.3565 129.747 52.4591 129.266 52.7059L129.281 52.6987C129.092 52.8154 128.94 52.9774 128.841 53.1678C128.742 53.3581 128.7 53.5699 128.718 53.7809V53.7773V53.8167C128.718 54.0582 128.799 54.2935 128.951 54.4891C129.102 54.6847 129.316 54.8307 129.561 54.9061L129.568 54.9097C130.054 55.0513 130.563 55.1096 131.07 55.0817H131.059L133.162 55.1319C134.747 54.9827 136.331 55.4244 137.571 56.361L137.559 56.3538C137.674 56.4399 137.775 56.5342 137.862 56.6369L137.866 56.6405L137.912 62.4171C137.267 63.1206 136.447 63.6652 135.525 64.0032C134.603 64.3412 133.606 64.4623 132.622 64.3558L132.648 64.3593ZM117.521 64.3593H109.966V61.0984H117.482C118.045 61.1661 118.613 61.0303 119.072 60.7185L119.064 60.7221C119.208 60.5972 119.322 60.4457 119.4 60.2773C119.478 60.1089 119.518 59.9273 119.516 59.7438V59.708C119.517 59.5234 119.475 59.3409 119.394 59.1728C119.313 59.0046 119.194 58.8548 119.045 58.7333C118.641 58.4662 118.147 58.3465 117.655 58.3964H117.662L116.95 58.3749C113.46 58.2889 109.499 58.1886 109.499 53.6985C109.499 51.5126 110.955 49.1797 115.042 49.1797H122.811V52.412H115.701C115.159 52.3587 114.612 52.4612 114.134 52.7059L114.15 52.6987C113.948 52.8282 113.788 53.0062 113.686 53.2138C113.584 53.4215 113.544 53.651 113.57 53.8782C113.596 54.1054 113.687 54.3219 113.833 54.5047C113.98 54.6875 114.176 54.8299 114.402 54.9169L114.41 54.9205C114.902 55.0642 115.417 55.1225 115.931 55.0925H115.919L118.007 55.1426C119.601 54.9955 121.194 55.438 122.443 56.3754L122.432 56.3646C122.853 56.7984 123.174 57.3094 123.373 57.8652C123.572 58.421 123.646 59.0095 123.589 59.5933V59.5754C123.6 62.7396 121.551 64.3522 117.509 64.3522L117.521 64.3593ZM107.645 64.3593H94.6969V49.1761H107.633V52.3117H98.566V55.071H107.423V58.1635H98.566V61.1808L107.645 61.1951V64.3486V64.3593ZM115.192 38.2501H107.296L105.787 34.8673H97.7347L96.2713 38.2501H91.7357C89.6988 38.3506 87.693 37.7502 86.0968 36.5623L86.1159 36.573C85.3572 35.7903 84.7813 34.8682 84.4251 33.8655C84.069 32.8628 83.9403 31.8017 84.0473 30.7499L84.0435 30.7785C83.9419 29.7072 84.0757 28.6277 84.4367 27.6066C84.7978 26.5854 85.3783 25.6441 86.1427 24.8407L86.1351 24.8479C86.9392 24.1893 87.8797 23.6929 88.898 23.3896C89.9163 23.0862 90.9905 22.9825 92.0536 23.0848L92.023 23.0812H95.7772V26.3171H92.0996C91.5615 26.2515 91.0145 26.2981 90.4979 26.4536C89.9813 26.6091 89.5078 26.8697 89.1116 27.2166L89.1154 27.213C88.2987 28.1953 87.9014 29.4265 88.0007 30.6674V30.6495C87.8797 31.9247 88.2627 33.1971 89.0771 34.2258L89.0656 34.2115C89.8266 34.7947 90.8019 35.0753 91.7816 34.9927H91.7663H93.5055L98.9873 23.0597H104.81L111.372 37.3936V23.0597H117.275L124.087 33.6238V23.0597H128.071V38.225H122.539L115.184 26.8367V38.225L115.192 38.2501ZM101.788 25.6434L99.1176 31.6923H104.469L101.788 25.6434ZM64.2498 38.2429H60.3731V23.0705H69.2911C70.9191 22.913 72.5622 23.1718 74.0451 23.8194L73.9877 23.7979C74.5828 24.1075 75.079 24.5599 75.4251 25.1085C75.7712 25.6571 75.9547 26.2821 75.9567 26.9191L75.949 27.17V27.1592V27.2703C75.9493 28.0979 75.6943 28.908 75.2146 29.6034C74.7348 30.2988 74.0508 30.8499 73.2445 31.1906L73.2139 31.2014C73.9838 31.4737 74.6312 31.9109 75.1254 32.4699L75.1331 32.4771C75.6834 33.3163 75.9092 34.3068 75.7728 35.283L75.7766 35.2615V38.2393H71.8654L71.8501 36.3258V36.0391C71.9927 35.1033 71.7711 34.1508 71.2257 33.3551L71.2372 33.373C70.831 33.095 70.3702 32.8947 69.8811 32.7834C69.3921 32.6721 68.8844 32.652 68.3871 32.7244L68.4101 32.7208H64.2537V38.2393L64.2498 38.2429ZM64.2498 26.2275V29.596H68.954C69.6187 29.6663 70.2908 29.5542 70.8886 29.2735L70.8694 29.2806C71.1141 29.1403 71.3163 28.9439 71.4571 28.71C71.5979 28.4761 71.6725 28.2124 71.6739 27.944L71.6701 27.8437C71.6895 27.5714 71.6234 27.3033 71.4798 27.0658C71.3361 26.8282 71.1213 26.6352 70.8618 26.5106L70.8541 26.507C70.2723 26.2695 69.6365 26.171 69.0038 26.2203H69.0153L64.2498 26.2275ZM23.1992 38.2429H15.3231L13.8329 34.8601H5.75766L4.256 38.2429H0.0421386L6.98734 23.0705H12.745L19.3378 37.4295V23.0705H25.6624L30.7343 33.3586L35.3964 23.0705H41.8513V38.2358H37.8673L37.8596 26.3673L32.2398 38.2393H28.8381L23.203 26.3493V38.2393L23.1992 38.2429ZM9.77615 25.6434L7.13674 31.6923H12.4309L9.77615 25.6434ZM82.1319 38.2393H78.1786V23.0705H82.1357V38.2358L82.1319 38.2393ZM57.6686 38.2393H44.7435V23.0705H57.6915V26.2239H48.6203V28.9581H57.4732V32.0722H48.6126V35.1038H57.6839V38.2358L57.6686 38.2393Z" fill="#0041B2"/>
</svg>
