<svg width="147" height="114" viewBox="0 0 147 114" fill="none" xmlns="http://www.w3.org/2000/svg">
<g clip-path="url(#clip0_1811_22337)">
<path d="M147 90.3924C147 102.972 136.757 113.215 124.177 113.215H0V22.8229C0 10.2435 10.2435 0 22.8229 0H147V90.3924Z" fill="white"/>
<path d="M106.566 67.2118H116.001C116.271 67.2118 116.899 67.1223 117.169 67.1223C118.967 66.7628 120.494 65.1452 120.494 62.8989C120.494 60.7427 118.967 59.1251 117.169 58.6761C116.899 58.5859 116.361 58.5859 116.001 58.5859H106.567L106.566 67.2118Z" fill="url(#paint0_linear_1811_22337)"/>
<path d="M114.922 7.63672C105.936 7.63672 98.5681 14.9155 98.5681 23.9905V40.973H121.661C122.2 40.973 122.829 40.973 123.278 41.0626C128.489 41.3325 132.353 44.0278 132.353 48.6997C132.353 52.3839 129.748 55.5289 124.895 56.1582V56.3374C130.197 56.6968 134.24 59.6621 134.24 64.2444C134.24 69.1867 129.748 72.4212 123.817 72.4212H98.4785V105.667H122.469C131.455 105.667 138.823 98.3891 138.823 89.3136V7.63672H114.922Z" fill="url(#paint1_linear_1811_22337)"/>
<path d="M119.326 49.7783C119.326 47.6215 117.798 46.1837 116.001 45.9138C115.822 45.9138 115.372 45.8242 115.103 45.8242H106.566V53.7312H115.103C115.373 53.7312 115.911 53.7312 116.001 53.6416C117.799 53.3717 119.326 51.9345 119.326 49.7777" fill="url(#paint2_linear_1811_22337)"/>
<path d="M24.5293 7.63672C15.5439 7.63672 8.17552 14.9155 8.17552 23.9905V64.3351C12.7584 66.5809 17.5204 68.0187 22.2829 68.0187C27.9436 68.0187 30.9984 64.6044 30.9984 59.932V40.8828H45.0157V59.8418C45.0157 67.2096 40.4334 73.2303 24.8887 73.2303C15.4543 73.2303 8.08594 71.1631 8.08594 71.1631V105.577H32.0768C41.0622 105.577 48.4305 98.299 48.4305 89.2234V7.63787L24.5293 7.63672Z" fill="url(#paint3_linear_1811_22337)"/>
<path d="M69.7268 7.63672C60.7414 7.63672 53.373 14.9155 53.373 23.9905V45.3755C57.5068 41.8711 64.6949 39.6247 76.2861 40.1639C82.4859 40.4338 89.1348 42.1409 89.1348 42.1409V49.0597C85.8101 47.3526 81.8572 45.8246 76.7351 45.4651C67.9295 44.8363 62.6283 49.1493 62.6283 56.6968C62.6283 64.3345 67.9295 68.6475 76.7351 67.9285C81.8572 67.5691 85.8107 65.9521 89.1348 64.3345V71.2533C89.1348 71.2533 82.5755 72.9604 76.2861 73.2303C64.6949 73.7689 57.5068 71.5226 53.3736 68.0187V105.757H77.3645C86.3499 105.757 93.7177 98.4787 93.7177 89.4032V7.63787L69.7268 7.63672Z" fill="url(#paint4_linear_1811_22337)"/>
</g>
<defs>
<linearGradient id="paint0_linear_1811_22337" x1="-694.651" y1="490.951" x2="3343.23" y2="490.951" gradientUnits="userSpaceOnUse">
<stop stop-color="#007940"/>
<stop offset="0.2285" stop-color="#00873F"/>
<stop offset="0.7433" stop-color="#40A737"/>
<stop offset="1" stop-color="#5CB531"/>
</linearGradient>
<linearGradient id="paint1_linear_1811_22337" x1="105.862" y1="4905.25" x2="4143.95" y2="4905.25" gradientUnits="userSpaceOnUse">
<stop stop-color="#007940"/>
<stop offset="0.2285" stop-color="#00873F"/>
<stop offset="0.7433" stop-color="#40A737"/>
<stop offset="1" stop-color="#5CB531"/>
</linearGradient>
<linearGradient id="paint2_linear_1811_22337" x1="-694.769" y1="440.051" x2="3343.34" y2="440.051" gradientUnits="userSpaceOnUse">
<stop stop-color="#007940"/>
<stop offset="0.2285" stop-color="#00873F"/>
<stop offset="0.7433" stop-color="#40A737"/>
<stop offset="1" stop-color="#5CB531"/>
</linearGradient>
<linearGradient id="paint3_linear_1811_22337" x1="15.1866" y1="4905.25" x2="4115.49" y2="4905.25" gradientUnits="userSpaceOnUse">
<stop stop-color="#1F286F"/>
<stop offset="0.4751" stop-color="#004E94"/>
<stop offset="0.8261" stop-color="#0066B1"/>
<stop offset="1" stop-color="#006FBC"/>
</linearGradient>
<linearGradient id="paint4_linear_1811_22337" x1="30.1346" y1="4905.21" x2="4012.51" y2="4905.21" gradientUnits="userSpaceOnUse">
<stop stop-color="#6C2C2F"/>
<stop offset="0.1735" stop-color="#882730"/>
<stop offset="0.5731" stop-color="#BE1833"/>
<stop offset="0.8585" stop-color="#DC0436"/>
<stop offset="1" stop-color="#E60039"/>
</linearGradient>
<clipPath id="clip0_1811_22337">
<rect width="147" height="113.695" fill="white"/>
</clipPath>
</defs>
</svg>
