<svg width="127" height="127" viewBox="0 0 127 127" fill="none" xmlns="http://www.w3.org/2000/svg">
<path d="M115.94 18.5217H11.0596C8.19135 18.4648 5.41739 19.5465 3.34471 21.5299C1.27203 23.5133 0.069408 26.237 0 29.105L0 97.8967C0.069408 100.765 1.27203 103.488 3.34471 105.472C5.41739 107.455 8.19135 108.537 11.0596 108.48H115.94C118.809 108.537 121.583 107.455 123.655 105.472C125.728 103.488 126.931 100.765 127 97.8967V29.105C126.931 26.237 125.728 23.5133 123.655 21.5299C121.583 19.5465 118.809 18.4648 115.94 18.5217ZM45.085 54.0287L34.5017 75.7775C34.1838 76.4513 33.6828 77.0221 33.0558 77.4245C32.4288 77.8269 31.7012 78.0446 30.9563 78.0529H27.4638C26.4806 78.0585 25.5303 77.699 24.7971 77.044C24.0639 76.389 23.5999 75.4851 23.495 74.5075L21.8546 58.2092C21.8052 57.891 21.6457 57.6002 21.404 57.3875C21.1622 57.1748 20.8536 57.0536 20.5317 57.045H18.5208C17.4683 57.045 16.4588 56.6269 15.7145 55.8826C14.9702 55.1383 14.5521 54.1288 14.5521 53.0762C14.5521 52.0237 14.9702 51.0142 15.7145 50.2699C16.4588 49.5256 17.4683 49.1075 18.5208 49.1075H25.2942C26.2774 49.1019 27.2276 49.4614 27.9608 50.1164C28.6941 50.7715 29.1581 51.6753 29.2629 52.6529L30.1096 61.3842C30.1564 61.6674 30.2875 61.9299 30.4857 62.1376C30.6839 62.3453 30.9401 62.4884 31.2208 62.5483C31.5073 62.5991 31.8025 62.5541 32.0608 62.4202C32.3191 62.2862 32.526 62.0709 32.6496 61.8075L37.9413 50.8008C38.132 50.2839 38.4282 49.8123 38.8112 49.4161C39.1941 49.0199 39.6554 48.7077 40.1656 48.4996C40.6758 48.2915 41.2237 48.1918 41.7746 48.2071C42.3254 48.2223 42.867 48.3521 43.3649 48.5881C43.8628 48.8242 44.3061 49.1613 44.6665 49.5781C45.027 49.9949 45.2967 50.4821 45.4585 51.0089C45.6204 51.5356 45.6707 52.0902 45.6064 52.6375C45.5421 53.1848 45.3645 53.7126 45.085 54.1875V54.0287ZM54.9275 75.1954C54.7345 76.0917 54.241 76.8952 53.5288 77.4726C52.8166 78.0501 51.9285 78.3668 51.0117 78.3704C50.4253 78.3666 49.8471 78.233 49.3186 77.979C48.7901 77.7251 48.3244 77.3572 47.955 76.9018C47.5856 76.4464 47.3218 75.9149 47.1824 75.3453C47.0429 74.7758 47.0315 74.1824 47.1488 73.6079L51.435 52.1237C51.5392 51.613 51.7431 51.1278 52.0348 50.6958C52.3266 50.2638 52.7006 49.8935 53.1354 49.606C53.5703 49.3186 54.0575 49.1196 54.5693 49.0204C55.0811 48.9213 55.6074 48.9239 56.1181 49.0281C56.6289 49.1324 57.1141 49.3362 57.5461 49.6279C57.9781 49.9197 58.3484 50.2937 58.6359 50.7286C58.9233 51.1634 59.1223 51.6507 59.2215 52.1624C59.3206 52.6742 59.318 53.2005 59.2138 53.7112L54.9275 75.1954ZM82.4442 53.6583C82.1823 54.6745 81.5287 55.5456 80.6263 56.0811C79.7239 56.6166 78.6461 56.7729 77.6288 56.5158C76.2529 56.1454 73.5013 55.6692 72.3371 56.8333C71.1729 57.9975 74.2421 59.4792 74.93 59.8496C81.5446 63.9242 82.0738 68.2104 81.3329 71.0679C80.9605 72.4851 80.2979 73.8094 79.387 74.9571C78.4761 76.1048 77.3368 77.0509 76.0413 77.7354C74.3044 78.6191 72.3808 79.0728 70.4321 79.0583C68.2448 79.0132 66.0805 78.6018 64.0292 77.8413C63.0327 77.4974 62.2137 76.7718 61.7522 75.8241C61.2908 74.8764 61.2247 73.7841 61.5686 72.7877C61.9124 71.7913 62.638 70.9722 63.5857 70.5108C64.5334 70.0493 65.6257 69.9832 66.6221 70.3271C68.4146 71.1574 70.4524 71.2895 72.3371 70.6975C72.6766 70.5617 72.9684 70.3284 73.1756 70.0271C73.3827 69.7258 73.4961 69.3698 73.5013 69.0042C73.5013 67.84 71.6492 67.1521 70.7496 66.6229C62.6004 61.3313 63.3413 56.3571 65.4579 52.8646C69.3738 46.3558 78.5813 48.5254 79.6396 48.8429C80.619 49.105 81.4585 49.7368 81.9816 50.6053C82.5046 51.4738 82.6705 52.5113 82.4442 53.4996V53.6583ZM106.151 78.0529C105.101 78.1264 104.064 77.7852 103.262 77.1025C102.461 76.4199 101.959 75.4502 101.865 74.4017V73.2375C101.851 72.9099 101.711 72.6003 101.474 72.3735C101.238 72.1466 100.922 72.0201 100.595 72.0204H96.4671C96.2134 72.008 95.9618 72.072 95.7449 72.2041C95.5279 72.3361 95.3555 72.5302 95.25 72.7613L93.6625 76.1479C93.4367 76.6205 93.12 77.0439 92.7305 77.394C92.341 77.7442 91.8863 78.0142 91.3925 78.1886C90.8987 78.363 90.3753 78.4385 89.8523 78.4107C89.3293 78.3829 88.8169 78.2523 88.3444 78.0265C87.3901 77.5703 86.656 76.7538 86.3037 75.7565C86.1293 75.2626 86.0538 74.7393 86.0816 74.2163C86.1094 73.6933 86.24 73.1809 86.4659 72.7083L96.7317 51.2771C97.0718 50.5527 97.6102 49.9396 98.2845 49.5088C98.9588 49.078 99.7415 48.8471 100.542 48.8429H104.458C105.435 48.8774 106.367 49.2673 107.078 49.9394C107.789 50.6115 108.231 51.5198 108.32 52.4942C108.744 57.7858 108.744 57.7858 110.067 73.6608C110.095 74.1977 110.016 74.7348 109.833 75.2405C109.65 75.7461 109.368 76.21 109.003 76.6046C108.638 76.9993 108.197 77.3168 107.708 77.5383C107.218 77.7598 106.688 77.8808 106.151 77.8942V78.0529Z" fill="#672323"/>
<path d="M99.3242 63.9246L100.753 60.8555L101.018 63.9246H99.3242Z" fill="#F49613"/>
</svg>
